<svg xmlns="http://www.w3.org/2000/svg" viewBox="0 0 40 40" aria-hidden="true">
  <rect x="0.5" y="0.5" width="39" height="39" rx="6" fill="#FFFFFF" stroke="#747775" />
  <path
    fill="#4285F4"
    d="M29.64 20.2045c0-.6382-.0573-1.2518-.1636-1.8409H21v3.4818h4.8436c-.2086 1.125-.8427 2.0782-1.7959 2.7164v2.2582h2.9086c1.7023-1.5673 2.6837-3.8741 2.6837-6.6155z"
  />
  <path
    fill="#34A853"
    d="M21 29c2.43 0 4.4673-.8059 5.9564-2.1791l-2.9086-2.2582c-.8059.54-1.8368.8591-3.0478.8591-2.3441 0-4.3282-1.5827-5.0364-3.7091h-3.0063v2.3318A8.9978 8.9978 0 0 0 21 29z"
  />
  <path
    fill="#FBBC05"
    d="M15.9636 21.7127A5.409 5.409 0 0 1 15.6818 20c0-.5959.1023-1.1741.2818-1.7127v-2.3318h-3.0063A8.9978 8.9978 0 0 0 12 20c0 1.4523.3477 2.8273.9573 4.0445l3.0063-2.3318z"
  />
  <path
    fill="#EA4335"
    d="M21 14.5782c1.3214 0 2.5077.4541 3.4405 1.3459l2.5814-2.5814C25.4632 11.8918 23.426 11.0009 21 11.0009a8.9978 8.9978 0 0 0-8.0427 4.9555l3.0063 2.3318C16.6718 16.1609 18.6559 14.5782 21 14.5782z"
  />
</svg>
